<?xml version="1.0" encoding="iso-8859-1"?>
<!DOCTYPE svg PUBLIC "-//W3C//DTD SVG 1.1//EN" "http://www.w3.org/Graphics/SVG/1.1/DTD/svg11.dtd">
<svg  version="1.1" xmlns="http://www.w3.org/2000/svg" xmlns:xlink="http://www.w3.org/1999/xlink" x="0px" y="0px" width="512px"
	 height="512px" viewBox="0 0 512 512" style="enable-background:new 0 0 512 512;" xml:space="preserve"><g id="afcae5a789ccd549f9c6e2a2f8160d10"><path style="display: inline;" d="M106.958,85.667H21.792c-11.71,0-21.292,9.581-21.292,21.292v298.083
		c0,11.71,9.581,21.291,21.292,21.291h85.167c11.71,0,21.292-9.581,21.292-21.291V106.959
		C128.25,95.248,118.669,85.667,106.958,85.667z M85.667,383.75c-5.88,0-10.646-4.766-10.646-10.646
		c0-5.881,4.766-10.646,10.646-10.646c5.88,0,10.646,4.766,10.646,10.646C96.313,378.984,91.547,383.75,85.667,383.75z
		 M85.667,341.167c-11.76,0-21.292-9.531-21.292-21.292s9.531-21.292,21.292-21.292s21.292,9.531,21.292,21.292
		S97.427,341.167,85.667,341.167z M106.958,192.125H21.792v-21.291h85.167V192.125z M106.958,149.542H21.792V128.25h85.167V149.542z
		 M213.417,298.583h255.5V128.25h-255.5V298.583z M245.354,149.542c5.88,0,10.646,4.766,10.646,10.646
		c0,5.881-4.766,10.646-10.646,10.646c-5.881,0-10.646-4.766-10.646-10.646C234.708,154.308,239.474,149.542,245.354,149.542z
		 M490.208,85.667H192.125c-11.71,0-21.292,9.581-21.292,21.292v212.916v42.583h122.427l-10.804,43.22
		c-2.841,11.361,4.416,20.655,16.126,20.655h85.167c11.71,0,18.967-9.294,16.127-20.655l-10.804-43.22H511.5v-42.583V106.959
		C511.5,95.248,501.919,85.667,490.208,85.667z M490.208,298.583c0,11.711-9.581,21.292-21.291,21.292h-255.5
		c-11.71,0-21.292-9.581-21.292-21.292V128.25c0-11.71,9.581-21.291,21.292-21.291h255.5c11.71,0,21.291,9.581,21.291,21.291
		V298.583z"></path></g></svg>