<?xml version="1.0" encoding="iso-8859-1"?>
<!DOCTYPE svg PUBLIC "-//W3C//DTD SVG 1.1//EN" "http://www.w3.org/Graphics/SVG/1.1/DTD/svg11.dtd">
<svg  version="1.1" xmlns="http://www.w3.org/2000/svg" xmlns:xlink="http://www.w3.org/1999/xlink" x="0px" y="0px" width="512px"
	 height="512px" viewBox="0 0 512 512" style="enable-background:new 0 0 512 512;" xml:space="preserve"><g id="9f7e7d65bebc9157b4431a86ec16eeb2"><path style="display: inline;" d="M482.808,141.498h0.304v351.076c0,10.409-8.517,18.926-18.926,18.926H104.593
		c-10.409,0-18.926-8.517-18.926-18.926v-79.012h37.852v60.086H445.26V151.907H359.15c-15.097,0-27.446-12.354-27.446-27.446V38.352
		H123.519v170.333H85.667V19.426c0-10.409,8.517-18.926,18.926-18.926h236.101v0.066c3.017,0.277,6.587,2.24,10.421,6.07
		l125.86,125.861C480.221,135.743,482.128,138.804,482.808,141.498z M28.889,375.711V246.537c0-10.409,8.517-18.926,18.926-18.926
		H350.63c10.409,0,18.926,8.517,18.926,18.926v129.174c0,10.408-8.517,18.925-18.926,18.925H47.814
		C37.405,394.636,28.889,386.119,28.889,375.711z M273.285,308.582l-23.576,38.426c-0.729,1.274-1.091,2.365-1.091,3.271
		c0,2.362,1.298,4.429,3.885,6.199c2.588,1.774,5.153,2.661,7.696,2.661c2.181,0,3.818-0.953,4.909-2.864l19.895-35.021
		l20.031,35.021c0.998,1.911,2.591,2.864,4.768,2.864c2.636,0,5.224-0.887,7.767-2.661c2.543-1.771,3.814-3.837,3.814-6.199
		c0-0.998-0.317-2.089-0.953-3.271l-23.572-38.426l22.759-38.291c0.813-1.361,1.224-2.633,1.224-3.814
		c0-2.271-1.205-4.226-3.611-5.863c-2.406-1.634-4.976-2.451-7.696-2.451c-2.547,0-4.547,1.275-5.995,3.818l-18.534,33.383
		l-18.534-33.383c-1.36-2.543-3.316-3.818-5.855-3.818c-2.728,0-5.293,0.817-7.703,2.451c-2.406,1.638-3.608,3.593-3.608,5.863
		c0,1.182,0.407,2.453,1.228,3.814L273.285,308.582z M169.178,352.869c0,1.723,0.769,3.091,2.313,4.089s3.36,1.497,5.449,1.497
		h48.512c1.819,0,3.201-0.772,4.155-2.318c0.953-1.545,1.434-3.312,1.434-5.314c0-2.178-0.502-4.037-1.5-5.586
		c-0.998-1.541-2.366-2.317-4.089-2.317h-38.562v-27.388h20.712c1.814,0,3.204-0.701,4.158-2.11
		c0.954-1.412,1.427-2.976,1.427-4.702c0-1.907-0.499-3.563-1.497-4.975c-1.002-1.405-2.362-2.115-4.088-2.115h-20.712v-27.25
		h38.562c1.723,0,3.091-0.77,4.089-2.318c0.998-1.541,1.5-3.404,1.5-5.584c0-1.996-0.48-3.771-1.434-5.316
		c-0.954-1.545-2.336-2.314-4.155-2.314H176.94c-2.089,0-3.904,0.5-5.449,1.498c-1.545,1.002-2.313,2.361-2.313,4.088V352.869z
		 M77.06,266.546c0,2.214,0.497,4.069,1.499,5.578c0.998,1.501,2.36,2.255,4.088,2.255h20.031v78.461
		c0,1.738,0.861,3.105,2.588,4.111c1.726,1.005,3.816,1.504,6.269,1.504c2.36,0,4.429-0.499,6.201-1.504
		c1.771-1.006,2.656-2.373,2.656-4.111v-78.461h19.896c1.724,0,3.086-0.772,4.086-2.321c1-1.553,1.499-3.386,1.499-5.512
		c0-2.036-0.477-3.825-1.431-5.378c-0.954-1.549-2.34-2.322-4.154-2.322H82.646c-1.818,0-3.203,0.773-4.156,2.322
		C77.536,262.721,77.06,264.51,77.06,266.546z"></path></g></svg>